<mxfile host="app.diagrams.net" modified="2023-10-06T17:31:09.472Z" agent="Mozilla/5.0 (Macintosh; Intel Mac OS X 10_15_7) AppleWebKit/537.36 (KHTML, like Gecko) Chrome/117.0.0.0 Safari/537.36" etag="aMhH7PgmQ72fPHHoNawQ" version="22.0.3" type="google">
  <diagram id="C5RBs43oDa-KdzZeNtuy" name="Page-1">
    <mxGraphModel dx="1211" dy="469" grid="1" gridSize="10" guides="1" tooltips="1" connect="1" arrows="1" fold="1" page="1" pageScale="1" pageWidth="827" pageHeight="1169" math="0" shadow="0">
      <root>
        <mxCell id="WIyWlLk6GJQsqaUBKTNV-0" />
        <mxCell id="WIyWlLk6GJQsqaUBKTNV-1" parent="WIyWlLk6GJQsqaUBKTNV-0" />
        <mxCell id="kp7JK-c2gYeZbfYkSQcP-26" style="edgeStyle=none;curved=1;rounded=0;orthogonalLoop=1;jettySize=auto;html=1;entryX=0.5;entryY=0;entryDx=0;entryDy=0;fontSize=12;startSize=8;endSize=8;" parent="WIyWlLk6GJQsqaUBKTNV-1" source="kp7JK-c2gYeZbfYkSQcP-1" target="kp7JK-c2gYeZbfYkSQcP-2" edge="1">
          <mxGeometry relative="1" as="geometry" />
        </mxCell>
        <mxCell id="kp7JK-c2gYeZbfYkSQcP-1" value="Start" style="ellipse;whiteSpace=wrap;html=1;fontSize=16;" parent="WIyWlLk6GJQsqaUBKTNV-1" vertex="1">
          <mxGeometry x="340" y="120" width="120" height="80" as="geometry" />
        </mxCell>
        <mxCell id="kp7JK-c2gYeZbfYkSQcP-27" style="edgeStyle=none;curved=1;rounded=0;orthogonalLoop=1;jettySize=auto;html=1;fontSize=12;startSize=8;endSize=8;" parent="WIyWlLk6GJQsqaUBKTNV-1" source="kp7JK-c2gYeZbfYkSQcP-2" target="kp7JK-c2gYeZbfYkSQcP-4" edge="1">
          <mxGeometry relative="1" as="geometry" />
        </mxCell>
        <mxCell id="kp7JK-c2gYeZbfYkSQcP-2" value="Enter the N" style="shape=parallelogram;perimeter=parallelogramPerimeter;whiteSpace=wrap;html=1;fixedSize=1;fontSize=16;" parent="WIyWlLk6GJQsqaUBKTNV-1" vertex="1">
          <mxGeometry x="330" y="240" width="140" height="60" as="geometry" />
        </mxCell>
        <mxCell id="kp7JK-c2gYeZbfYkSQcP-28" style="edgeStyle=none;curved=1;rounded=0;orthogonalLoop=1;jettySize=auto;html=1;fontSize=12;startSize=8;endSize=8;" parent="WIyWlLk6GJQsqaUBKTNV-1" source="kp7JK-c2gYeZbfYkSQcP-4" target="kp7JK-c2gYeZbfYkSQcP-5" edge="1">
          <mxGeometry relative="1" as="geometry" />
        </mxCell>
        <mxCell id="kp7JK-c2gYeZbfYkSQcP-4" value="Summa = 1" style="rounded=0;whiteSpace=wrap;html=1;fontSize=16;" parent="WIyWlLk6GJQsqaUBKTNV-1" vertex="1">
          <mxGeometry x="340" y="340" width="120" height="60" as="geometry" />
        </mxCell>
        <mxCell id="kp7JK-c2gYeZbfYkSQcP-29" style="edgeStyle=none;curved=1;rounded=0;orthogonalLoop=1;jettySize=auto;html=1;fontSize=12;startSize=8;endSize=8;" parent="WIyWlLk6GJQsqaUBKTNV-1" source="kp7JK-c2gYeZbfYkSQcP-5" target="kp7JK-c2gYeZbfYkSQcP-7" edge="1">
          <mxGeometry relative="1" as="geometry" />
        </mxCell>
        <mxCell id="kp7JK-c2gYeZbfYkSQcP-5" value="Multiply = 1" style="rounded=0;whiteSpace=wrap;html=1;fontSize=16;" parent="WIyWlLk6GJQsqaUBKTNV-1" vertex="1">
          <mxGeometry x="340" y="440" width="120" height="60" as="geometry" />
        </mxCell>
        <mxCell id="kp7JK-c2gYeZbfYkSQcP-31" style="edgeStyle=none;curved=1;rounded=0;orthogonalLoop=1;jettySize=auto;html=1;entryX=0;entryY=1;entryDx=0;entryDy=0;fontSize=12;startSize=8;endSize=8;" parent="WIyWlLk6GJQsqaUBKTNV-1" source="kp7JK-c2gYeZbfYkSQcP-7" target="kp7JK-c2gYeZbfYkSQcP-9" edge="1">
          <mxGeometry relative="1" as="geometry" />
        </mxCell>
        <mxCell id="kp7JK-c2gYeZbfYkSQcP-35" style="edgeStyle=none;curved=1;rounded=0;orthogonalLoop=1;jettySize=auto;html=1;fontSize=12;startSize=8;endSize=8;" parent="WIyWlLk6GJQsqaUBKTNV-1" source="kp7JK-c2gYeZbfYkSQcP-7" target="kp7JK-c2gYeZbfYkSQcP-12" edge="1">
          <mxGeometry relative="1" as="geometry" />
        </mxCell>
        <mxCell id="kp7JK-c2gYeZbfYkSQcP-7" value="While N &amp;gt; 0" style="rhombus;whiteSpace=wrap;html=1;fontSize=16;" parent="WIyWlLk6GJQsqaUBKTNV-1" vertex="1">
          <mxGeometry x="340" y="540" width="120" height="120" as="geometry" />
        </mxCell>
        <mxCell id="kp7JK-c2gYeZbfYkSQcP-8" value="num = N % 10" style="rounded=0;whiteSpace=wrap;html=1;fontSize=16;" parent="WIyWlLk6GJQsqaUBKTNV-1" vertex="1">
          <mxGeometry x="175" y="570" width="120" height="60" as="geometry" />
        </mxCell>
        <mxCell id="kp7JK-c2gYeZbfYkSQcP-9" value="Yes" style="text;html=1;strokeColor=none;fillColor=none;align=center;verticalAlign=middle;whiteSpace=wrap;rounded=0;fontSize=16;" parent="WIyWlLk6GJQsqaUBKTNV-1" vertex="1">
          <mxGeometry x="295" y="570" width="60" height="30" as="geometry" />
        </mxCell>
        <mxCell id="kp7JK-c2gYeZbfYkSQcP-11" value="No" style="text;html=1;strokeColor=none;fillColor=none;align=center;verticalAlign=middle;whiteSpace=wrap;rounded=0;fontSize=16;" parent="WIyWlLk6GJQsqaUBKTNV-1" vertex="1">
          <mxGeometry x="450" y="570" width="60" height="30" as="geometry" />
        </mxCell>
        <mxCell id="kp7JK-c2gYeZbfYkSQcP-36" style="edgeStyle=none;curved=1;rounded=0;orthogonalLoop=1;jettySize=auto;html=1;fontSize=12;startSize=8;endSize=8;" parent="WIyWlLk6GJQsqaUBKTNV-1" source="kp7JK-c2gYeZbfYkSQcP-12" target="kp7JK-c2gYeZbfYkSQcP-14" edge="1">
          <mxGeometry relative="1" as="geometry" />
        </mxCell>
        <mxCell id="kp7JK-c2gYeZbfYkSQcP-12" value="if(num / 2 ==0" style="rounded=0;whiteSpace=wrap;html=1;fontSize=16;" parent="WIyWlLk6GJQsqaUBKTNV-1" vertex="1">
          <mxGeometry x="340" y="693" width="120" height="60" as="geometry" />
        </mxCell>
        <mxCell id="kp7JK-c2gYeZbfYkSQcP-38" style="edgeStyle=none;curved=1;rounded=0;orthogonalLoop=1;jettySize=auto;html=1;entryX=1;entryY=0.5;entryDx=0;entryDy=0;fontSize=12;startSize=8;endSize=8;" parent="WIyWlLk6GJQsqaUBKTNV-1" source="kp7JK-c2gYeZbfYkSQcP-14" target="kp7JK-c2gYeZbfYkSQcP-17" edge="1">
          <mxGeometry relative="1" as="geometry" />
        </mxCell>
        <mxCell id="kp7JK-c2gYeZbfYkSQcP-40" style="edgeStyle=none;curved=1;rounded=0;orthogonalLoop=1;jettySize=auto;html=1;entryX=0.5;entryY=0;entryDx=0;entryDy=0;fontSize=12;startSize=8;endSize=8;" parent="WIyWlLk6GJQsqaUBKTNV-1" source="kp7JK-c2gYeZbfYkSQcP-14" target="kp7JK-c2gYeZbfYkSQcP-21" edge="1">
          <mxGeometry relative="1" as="geometry" />
        </mxCell>
        <mxCell id="kp7JK-c2gYeZbfYkSQcP-14" value="if(num / 2 ==0" style="rhombus;whiteSpace=wrap;html=1;fontSize=16;" parent="WIyWlLk6GJQsqaUBKTNV-1" vertex="1">
          <mxGeometry x="340" y="790" width="120" height="120" as="geometry" />
        </mxCell>
        <mxCell id="kp7JK-c2gYeZbfYkSQcP-17" value="num += Multiply" style="rounded=0;whiteSpace=wrap;html=1;fontSize=16;" parent="WIyWlLk6GJQsqaUBKTNV-1" vertex="1">
          <mxGeometry x="175" y="819" width="120" height="60" as="geometry" />
        </mxCell>
        <mxCell id="kp7JK-c2gYeZbfYkSQcP-18" value="Yes" style="text;html=1;strokeColor=none;fillColor=none;align=center;verticalAlign=middle;whiteSpace=wrap;rounded=0;fontSize=16;" parent="WIyWlLk6GJQsqaUBKTNV-1" vertex="1">
          <mxGeometry x="289" y="819" width="60" height="30" as="geometry" />
        </mxCell>
        <mxCell id="kp7JK-c2gYeZbfYkSQcP-19" value="num += Summa" style="rounded=0;whiteSpace=wrap;html=1;fontSize=16;" parent="WIyWlLk6GJQsqaUBKTNV-1" vertex="1">
          <mxGeometry x="502" y="819" width="120" height="60" as="geometry" />
        </mxCell>
        <mxCell id="kp7JK-c2gYeZbfYkSQcP-20" value="No" style="text;html=1;strokeColor=none;fillColor=none;align=center;verticalAlign=middle;whiteSpace=wrap;rounded=0;fontSize=16;" parent="WIyWlLk6GJQsqaUBKTNV-1" vertex="1">
          <mxGeometry x="450" y="819" width="60" height="30" as="geometry" />
        </mxCell>
        <mxCell id="kp7JK-c2gYeZbfYkSQcP-41" style="edgeStyle=none;curved=1;rounded=0;orthogonalLoop=1;jettySize=auto;html=1;fontSize=12;startSize=8;endSize=8;" parent="WIyWlLk6GJQsqaUBKTNV-1" source="kp7JK-c2gYeZbfYkSQcP-21" target="kp7JK-c2gYeZbfYkSQcP-22" edge="1">
          <mxGeometry relative="1" as="geometry" />
        </mxCell>
        <mxCell id="kp7JK-c2gYeZbfYkSQcP-21" value="N = N / 10" style="rounded=0;whiteSpace=wrap;html=1;fontSize=16;" parent="WIyWlLk6GJQsqaUBKTNV-1" vertex="1">
          <mxGeometry x="340" y="949" width="120" height="60" as="geometry" />
        </mxCell>
        <mxCell id="kp7JK-c2gYeZbfYkSQcP-42" style="edgeStyle=none;curved=1;rounded=0;orthogonalLoop=1;jettySize=auto;html=1;entryX=0.5;entryY=0;entryDx=0;entryDy=0;fontSize=12;startSize=8;endSize=8;" parent="WIyWlLk6GJQsqaUBKTNV-1" source="kp7JK-c2gYeZbfYkSQcP-22" target="kp7JK-c2gYeZbfYkSQcP-23" edge="1">
          <mxGeometry relative="1" as="geometry" />
        </mxCell>
        <mxCell id="kp7JK-c2gYeZbfYkSQcP-22" value="Enter the product" style="shape=parallelogram;perimeter=parallelogramPerimeter;whiteSpace=wrap;html=1;fixedSize=1;fontSize=16;" parent="WIyWlLk6GJQsqaUBKTNV-1" vertex="1">
          <mxGeometry x="340" y="1050" width="120" height="60" as="geometry" />
        </mxCell>
        <mxCell id="kp7JK-c2gYeZbfYkSQcP-23" value="End" style="ellipse;whiteSpace=wrap;html=1;fontSize=16;" parent="WIyWlLk6GJQsqaUBKTNV-1" vertex="1">
          <mxGeometry x="340" y="1150" width="120" height="80" as="geometry" />
        </mxCell>
        <mxCell id="kp7JK-c2gYeZbfYkSQcP-25" value="End" style="ellipse;whiteSpace=wrap;html=1;fontSize=16;" parent="WIyWlLk6GJQsqaUBKTNV-1" vertex="1">
          <mxGeometry x="502" y="560" width="120" height="80" as="geometry" />
        </mxCell>
        <mxCell id="kp7JK-c2gYeZbfYkSQcP-34" style="edgeStyle=none;curved=1;rounded=0;orthogonalLoop=1;jettySize=auto;html=1;fontSize=12;startSize=8;endSize=8;entryX=-0.001;entryY=0.513;entryDx=0;entryDy=0;entryPerimeter=0;exitX=0.164;exitY=0.998;exitDx=0;exitDy=0;exitPerimeter=0;" parent="WIyWlLk6GJQsqaUBKTNV-1" source="kp7JK-c2gYeZbfYkSQcP-11" edge="1">
          <mxGeometry relative="1" as="geometry">
            <mxPoint x="460.12" y="600" as="sourcePoint" />
            <mxPoint x="501.9999999999999" y="601.04" as="targetPoint" />
          </mxGeometry>
        </mxCell>
        <mxCell id="kp7JK-c2gYeZbfYkSQcP-39" style="edgeStyle=none;curved=1;rounded=0;orthogonalLoop=1;jettySize=auto;html=1;entryX=0.861;entryY=1.011;entryDx=0;entryDy=0;entryPerimeter=0;fontSize=12;startSize=8;endSize=8;" parent="WIyWlLk6GJQsqaUBKTNV-1" source="kp7JK-c2gYeZbfYkSQcP-14" target="kp7JK-c2gYeZbfYkSQcP-20" edge="1">
          <mxGeometry relative="1" as="geometry" />
        </mxCell>
      </root>
    </mxGraphModel>
  </diagram>
</mxfile>
